<?xml version="1.0" encoding="UTF-8" standalone="no"?>
<!-- Created with Inkscape (http://www.inkscape.org/) -->

<svg
   width="30.48mm"
   height="128.5mm"
   viewBox="0 0 30.48 128.5"
   version="1.1"
   id="svg5"
   inkscape:version="1.2.1 (9c6d41e410, 2022-07-14)"
   sodipodi:docname="Mapper4Rack.svg"
   xmlns:inkscape="http://www.inkscape.org/namespaces/inkscape"
   xmlns:sodipodi="http://sodipodi.sourceforge.net/DTD/sodipodi-0.dtd"
   xmlns:xlink="http://www.w3.org/1999/xlink"
   xmlns="http://www.w3.org/2000/svg"
   xmlns:svg="http://www.w3.org/2000/svg">
  <sodipodi:namedview
     id="namedview7"
     pagecolor="#ffffff"
     bordercolor="#000000"
     borderopacity="0.25"
     inkscape:showpageshadow="2"
     inkscape:pageopacity="0.0"
     inkscape:pagecheckerboard="0"
     inkscape:deskcolor="#d1d1d1"
     inkscape:document-units="mm"
     showgrid="false"
     inkscape:zoom="2.8079686"
     inkscape:cx="-39.530357"
     inkscape:cy="116.45429"
     inkscape:window-width="1920"
     inkscape:window-height="986"
     inkscape:window-x="-11"
     inkscape:window-y="-11"
     inkscape:window-maximized="1"
     inkscape:current-layer="layer1" />
  <defs
     id="defs2">
    <rect
       x="36.325191"
       y="18.518726"
       width="79.060715"
       height="24.216795"
       id="rect2212" />
    <linearGradient
       inkscape:collect="always"
       id="linearGradient2154">
      <stop
         style="stop-color:#666666;stop-opacity:1;"
         offset="0"
         id="stop2150" />
      <stop
         style="stop-color:#4d4d4d;stop-opacity:1"
         offset="1"
         id="stop2152" />
    </linearGradient>
    <rect
       x="17.094208"
       y="26.353571"
       width="85.471039"
       height="14.957432"
       id="rect167" />
    <linearGradient
       inkscape:collect="always"
       xlink:href="#linearGradient2154"
       id="linearGradient2156"
       x1="-1.4245172"
       y1="-3.9174318"
       x2="153.13562"
       y2="488.96558"
       gradientUnits="userSpaceOnUse"
       gradientTransform="matrix(0.19930404,0,0,0.26458333,-0.27897446,0)" />
  </defs>
  <g
     inkscape:groupmode="layer"
     id="layer2"
     inkscape:label="Base">
    <path
       style="fill:url(#linearGradient2156);stroke-width:0.16356"
       d="M -1.1307106,64.544733 V -0.94225887 H 15.123255 31.377221 V 64.544733 130.03172 H 15.123255 -1.1307106 Z"
       id="path1264" />
    <path
       style="fill:#ffffff;stroke:#ffffff;stroke-width:0.144645;stroke-dasharray:none"
       d="M 15.24,32.525079 V 123.56964"
       id="path2606"
       sodipodi:nodetypes="cc" />
    <rect
       style="fill:#000000;stroke:#000000;stroke-width:0.0687034;stroke-dasharray:none;stroke-opacity:1"
       id="rect3372"
       width="12.138436"
       height="14.823874"
       x="16.779661"
       y="32.478352"
       ry="1.6218718" />
    <rect
       style="fill:#000000;stroke:#000000;stroke-width:0.0687034;stroke-dasharray:none;stroke-opacity:1"
       id="rect3430"
       width="12.138436"
       height="14.823874"
       x="16.779661"
       y="47.716351"
       ry="1.6218718" />
    <rect
       style="fill:#000000;stroke:#000000;stroke-width:0.0687034;stroke-dasharray:none;stroke-opacity:1"
       id="rect3432"
       width="12.138436"
       height="14.823874"
       x="16.779661"
       y="62.95335"
       ry="1.6218718" />
    <rect
       style="fill:#000000;stroke:#000000;stroke-width:0.0687034;stroke-dasharray:none;stroke-opacity:1"
       id="rect3434"
       width="12.138436"
       height="14.823874"
       x="16.779661"
       y="78.259354"
       ry="1.6218718" />
    <rect
       style="fill:#000000;stroke:#000000;stroke-width:0.0687034;stroke-dasharray:none;stroke-opacity:1"
       id="rect3436"
       width="12.138436"
       height="14.823874"
       x="16.779661"
       y="93.496353"
       ry="1.6218718" />
    <rect
       style="fill:#000000;stroke:#000000;stroke-width:0.0687034;stroke-dasharray:none;stroke-opacity:1"
       id="rect3438"
       width="12.138436"
       height="14.823874"
       x="16.779661"
       y="108.80135"
       ry="1.6218718" />
  </g>
  <g
     inkscape:label="Layer 1"
     inkscape:groupmode="layer"
     id="layer1">
    <g
       aria-label="Mapper
4
Rack"
       id="text2324"
       style="font-size:5.64444px;font-family:Century;-inkscape-font-specification:Century;fill:#ffffff;stroke-width:0.264583"
       transform="translate(0,4.1996455)">
      <path
         d="M 4.5598516,5.3463545 H 5.9185962 L 7.134025,8.5654492 8.2557472,5.3463545 H 9.6448087 V 5.55306 H 9.3058115 q -0.1791448,0 -0.2425345,0.052365 Q 9.002643,5.65779 9.002643,5.7873259 V 9.014689 q 0,0.096463 0.074414,0.148828 0.074414,0.052365 0.2563149,0.052365 H 9.6448087 V 9.4225883 H 7.7817025 V 9.2158828 h 0.3472653 q 0.148828,0 0.220486,-0.055121 0.071658,-0.057878 0.071658,-0.1460719 V 5.55306 L 7.0733914,9.4225883 H 6.8859783 L 5.4362832,5.5695965 v 2.9627798 q 0,0.2645832 0.066146,0.3968747 0.066146,0.1295355 0.1874131,0.2011935 0.1240233,0.068902 0.407899,0.085438 V 9.4225883 H 4.5598516 V 9.2158828 Q 4.9374338,9.1910781 5.0724814,9.0532744 5.2075291,8.9154707 5.2075291,8.5654492 V 5.7542535 q 0,-0.1047309 -0.06339,-0.1515841 Q 5.0807496,5.55306 4.907117,5.55306 H 4.5598516 Z"
         style="text-align:center;text-anchor:middle"
         id="path3508" />
      <path
         d="m 12.706807,9.1387127 0.09922,0.1543402 q -0.201193,0.2067055 -0.446484,0.2067055 -0.187413,0 -0.316949,-0.1019747 -0.126779,-0.1019748 -0.223242,-0.3582897 -0.261827,0.2756075 -0.460264,0.369314 -0.198437,0.09095 -0.476801,0.09095 -0.396875,0 -0.60358,-0.1708766 Q 10.072,9.1580052 10.072,8.890666 q 0,-0.4023868 0.471289,-0.66697 0.474045,-0.2673392 1.259526,-0.3555336 V 7.4767999 q 0,-0.2094617 -0.168121,-0.3582897 -0.16812,-0.148828 -0.427191,-0.148828 -0.239779,0 -0.413411,0.099219 -0.124024,0.074414 -0.124024,0.1460719 0,0.041341 0.06615,0.1295355 0.07993,0.110243 0.07993,0.1956813 0,0.1240233 -0.07993,0.2039495 -0.07993,0.07717 -0.209461,0.07717 -0.137804,0 -0.231511,-0.093706 -0.09095,-0.093707 -0.09095,-0.2397785 0,-0.2728514 0.305924,-0.4988495 0.30868,-0.2259981 0.80753,-0.2259981 0.460264,0 0.702799,0.1984374 0.242534,0.2011934 0.242534,0.4878251 v 1.4111101 q 0,0.187413 0.06063,0.2756074 0.06063,0.09095 0.157096,0.09095 0.107487,0 0.225998,-0.088195 z M 11.802815,8.0500633 q -0.700043,0.096463 -0.992187,0.3141925 -0.21773,0.1653645 -0.21773,0.4685326 0,0.2122178 0.112999,0.333485 0.112999,0.1185112 0.2949,0.1185112 0.325217,0 0.56224,-0.2452906 0.239778,-0.2480467 0.239778,-0.6201167 z"
         style="text-align:center;text-anchor:middle"
         id="path3510" />
      <path
         d="m 13.933261,6.7932935 q 0.06063,0.2893878 0.07166,0.556727 0.19017,-0.3031682 0.399631,-0.4299476 0.209462,-0.1267794 0.457509,-0.1267794 0.264583,0 0.504361,0.1626083 0.242535,0.1626084 0.391363,0.4768009 0.151584,0.3141925 0.151584,0.7083111 0,0.631141 -0.369314,1.0280157 -0.305924,0.3307289 -0.733116,0.3307289 -0.242534,0 -0.438216,-0.1240233 -0.195681,-0.1240234 -0.347265,-0.369314 v 1.0445519 q 0,0.121268 0.05788,0.170877 0.07441,0.06615 0.206706,0.06615 h 0.190169 v 0.195681 H 13.100932 V 10.288 h 0.190169 q 0.132292,0 0.198438,-0.05237 0.06615,-0.05236 0.06615,-0.137803 V 7.3803373 q 0,-0.1901691 -0.09095,-0.2673392 -0.09095,-0.079926 -0.363802,-0.088194 v -0.184657 z m 0.802017,0.2508027 q -0.300412,0 -0.509874,0.2893878 -0.206705,0.2893878 -0.206705,0.8378466 0,0.5539709 0.201193,0.8185541 0.201194,0.2645831 0.51263,0.2645831 0.292144,0 0.44924,-0.2259981 0.201194,-0.297656 0.201194,-0.8709195 0,-0.6008242 -0.181901,-0.8571391 -0.181901,-0.2563149 -0.465777,-0.2563149 z"
         style="text-align:center;text-anchor:middle"
         id="path3512" />
      <path
         d="m 17.174404,6.7932935 q 0.06063,0.2893878 0.07166,0.556727 0.190169,-0.3031682 0.39963,-0.4299476 0.209462,-0.1267794 0.457509,-0.1267794 0.264583,0 0.504361,0.1626083 0.242535,0.1626084 0.391363,0.4768009 0.151584,0.3141925 0.151584,0.7083111 0,0.631141 -0.369314,1.0280157 -0.305924,0.3307289 -0.733116,0.3307289 -0.242534,0 -0.438215,-0.1240233 Q 17.414184,9.2517117 17.2626,9.0064211 v 1.0445519 q 0,0.121268 0.05788,0.170877 0.07441,0.06615 0.206705,0.06615 h 0.190169 v 0.195681 H 16.342073 V 10.288 h 0.190169 q 0.132292,0 0.198438,-0.05237 0.06615,-0.05236 0.06615,-0.137803 V 7.3803373 q 0,-0.1901691 -0.09095,-0.2673392 -0.09095,-0.079926 -0.363802,-0.088194 v -0.184657 z m 0.802017,0.2508027 q -0.300412,0 -0.509873,0.2893878 -0.206706,0.2893878 -0.206706,0.8378466 0,0.5539709 0.201193,0.8185541 0.201194,0.2645831 0.51263,0.2645831 0.292144,0 0.44924,-0.2259981 0.201194,-0.297656 0.201194,-0.8709195 0,-0.6008242 -0.181901,-0.8571391 -0.181901,-0.2563149 -0.465777,-0.2563149 z"
         style="text-align:center;text-anchor:middle"
         id="path3514" />
      <path
         d="m 22.022339,8.149282 h -1.849326 q 0.01378,0.5897999 0.220486,0.8323345 0.237023,0.2728513 0.603581,0.2728513 0.54019,0 0.868163,-0.6146046 l 0.179145,0.07717 q -0.402387,0.7827251 -1.163063,0.7827251 -0.518142,0 -0.873676,-0.3748261 -0.352778,-0.3748261 -0.352778,-0.9591138 0,-0.628385 0.347266,-1.0142354 0.350021,-0.3886065 0.859895,-0.3886065 0.374826,0 0.647677,0.1929252 0.272852,0.1929252 0.410656,0.553971 0.09646,0.2535588 0.101974,0.6394093 z M 20.173013,7.9536007 h 1.118967 q 0.09922,0 0.15434,-0.066146 0.05512,-0.068902 0.05512,-0.2315103 0,-0.3031682 -0.190169,-0.5153859 -0.187413,-0.2122177 -0.443728,-0.2122177 -0.286632,0 -0.487825,0.2563149 -0.198437,0.2563149 -0.206706,0.7689447 z"
         style="text-align:center;text-anchor:middle"
         id="path3516" />
      <path
         d="m 22.380629,6.8401467 0.928797,-0.046853 v 1.0445521 q 0.148828,-0.5153859 0.358289,-0.779969 0.209462,-0.2645831 0.518142,-0.2645831 0.209462,0 0.333485,0.1295355 0.12678,0.1267794 0.12678,0.3417532 0,0.1736326 -0.08544,0.2700953 -0.08268,0.096463 -0.209461,0.096463 -0.124024,0 -0.201194,-0.082682 -0.07441,-0.082682 -0.07441,-0.223242 0,-0.09095 0.0441,-0.1708766 0.04134,-0.071658 0.04134,-0.085438 0,-0.041341 -0.05237,-0.041341 -0.112999,0 -0.256315,0.1322915 -0.198437,0.184657 -0.305924,0.5071177 -0.165364,0.5016055 -0.165364,0.8020176 v 0.553971 q 0,0.093706 0.06614,0.1433158 0.06615,0.049609 0.225999,0.049609 H 24.0012 V 9.4225883 H 22.397165 V 9.2158828 h 0.256315 q 0.129536,0 0.195681,-0.049609 0.06615,-0.052365 0.06615,-0.1240233 V 7.3968737 q 0,-0.187413 -0.07993,-0.2728513 -0.07993,-0.088194 -0.228754,-0.088194 h -0.225998 z"
         style="text-align:center;text-anchor:middle"
         id="path3518" />
      <path
         d="m 15.184518,12.655464 h 0.179145 v 2.607246 h 0.633897 v 0.234266 h -0.633897 v 0.587044 q 0,0.07717 0.06063,0.124023 0.08819,0.06339 0.203949,0.06339 h 0.234266 v 0.206706 h -1.529621 v -0.206706 h 0.283876 q 0.143316,0 0.209461,-0.06063 0.0689,-0.06063 0.0689,-0.176388 V 15.49698 h -1.559938 v -0.264583 z m -0.289388,0.746896 -1.331184,1.86035 h 1.331184 z"
         style="text-align:center;text-anchor:middle"
         id="path3520" />
      <path
         d="m 8.2144061,19.457455 h 2.1056409 q 0.611848,0 0.948089,0.278363 0.338998,0.278364 0.338998,0.73036 0,0.270095 -0.135048,0.482313 -0.132292,0.209462 -0.38585,0.336241 -0.250803,0.124023 -0.790994,0.179145 0.394119,0.107487 0.542947,0.212218 0.148828,0.101974 0.237022,0.267339 0.09095,0.162608 0.206706,0.66697 0.08268,0.361046 0.176389,0.493337 0.07166,0.101975 0.15434,0.101975 0.08544,0 0.157096,-0.124023 0.07441,-0.12678 0.09095,-0.443728 h 0.187413 q -0.05236,0.937065 -0.691774,0.937065 -0.201194,0 -0.350022,-0.101975 -0.146072,-0.101975 -0.220486,-0.300412 -0.05788,-0.148828 -0.129535,-0.779969 -0.04134,-0.366558 -0.132292,-0.520898 -0.08819,-0.15434 -0.278363,-0.248047 -0.190169,-0.09371 -0.4547524,-0.09371 h -0.333485 v 1.601279 q 0,0.101975 0.052365,0.143316 0.066146,0.05236 0.2067056,0.05236 H 10.107829 V 23.53368 H 8.2144061 v -0.206706 h 0.3996308 q 0.1322916,0 0.1929252,-0.05236 0.06339,-0.05237 0.06339,-0.143316 v -3.25768 q 0,-0.104731 -0.06339,-0.157096 -0.06339,-0.05237 -0.1929252,-0.05237 H 8.2144061 Z m 1.2429895,1.87413 h 0.482313 q 0.4850694,0 0.7579204,-0.1819 0.275607,-0.184657 0.275607,-0.65319 0,-0.322461 -0.10473,-0.509874 -0.101975,-0.187413 -0.270096,-0.256315 -0.16812,-0.0689 -0.6614574,-0.0689 -0.3252168,0 -0.4023869,0.04685 -0.07717,0.0441 -0.07717,0.15434 z"
         style="text-align:center;text-anchor:middle"
         id="path3522" />
      <path
         d="m 15.060495,23.249813 0.09922,0.15434 q -0.201193,0.206706 -0.446484,0.206706 -0.187413,0 -0.316948,-0.101975 -0.12678,-0.101975 -0.223242,-0.35829 -0.261827,0.275608 -0.460265,0.369314 -0.198437,0.09095 -0.476801,0.09095 -0.396874,0 -0.60358,-0.170877 -0.206705,-0.170876 -0.206705,-0.438216 0,-0.402386 0.471288,-0.66697 0.474045,-0.267339 1.259526,-0.355533 V 21.5879 q 0,-0.209461 -0.16812,-0.358289 -0.168121,-0.148828 -0.427192,-0.148828 -0.239778,0 -0.413411,0.09922 -0.124023,0.07441 -0.124023,0.146072 0,0.04134 0.06615,0.129536 0.07993,0.110243 0.07993,0.195681 0,0.124023 -0.07993,0.20395 -0.07993,0.07717 -0.209462,0.07717 -0.137804,0 -0.23151,-0.09371 -0.09095,-0.09371 -0.09095,-0.239778 0,-0.272852 0.305924,-0.49885 0.308681,-0.225998 0.80753,-0.225998 0.460265,0 0.702799,0.198437 0.242535,0.201194 0.242535,0.487826 v 1.41111 q 0,0.187413 0.06063,0.275607 0.06063,0.09095 0.157097,0.09095 0.107486,0 0.225998,-0.08819 z m -0.903993,-1.088649 q -0.700043,0.09646 -0.992186,0.314192 -0.21773,0.165365 -0.21773,0.468533 0,0.212218 0.112999,0.333485 0.112999,0.118511 0.2949,0.118511 0.325216,0 0.562239,-0.245291 0.239778,-0.248046 0.239778,-0.620116 z"
         style="text-align:center;text-anchor:middle"
         id="path3524" />
      <path
         d="m 17.444499,22.7675 0.179145,0.05237 q -0.214974,0.790993 -0.94809,0.790993 -0.537434,0 -0.879187,-0.355534 -0.341754,-0.355533 -0.341754,-0.945333 0,-0.683507 0.374826,-1.058333 0.374827,-0.377582 0.881944,-0.377582 0.380339,0 0.628385,0.209462 0.248047,0.209461 0.248047,0.465776 0,0.15434 -0.09371,0.256315 -0.09095,0.09922 -0.217729,0.09922 -0.124024,0 -0.209462,-0.08544 -0.08544,-0.08544 -0.08544,-0.206706 0,-0.121267 0.09371,-0.23151 0.0441,-0.05237 0.0441,-0.08268 0,-0.07993 -0.107487,-0.154341 -0.107487,-0.07717 -0.292144,-0.07717 -0.336241,0 -0.509873,0.245291 -0.248047,0.355533 -0.248047,0.937065 0,0.553971 0.220486,0.840603 0.220486,0.283875 0.562239,0.283875 0.471289,0 0.700043,-0.606336 z"
         style="text-align:center;text-anchor:middle"
         id="path3526" />
      <path
         d="m 17.932325,19.457455 0.986674,-0.04685 v 2.819464 l 0.840603,-0.73036 q 0.121267,-0.107487 0.121267,-0.187413 0,-0.0689 -0.07166,-0.107487 -0.107487,-0.05512 -0.350021,-0.06063 v -0.192925 h 1.375281 v 0.192925 q -0.407899,0.02205 -0.622873,0.214974 l -0.592556,0.52641 0.96187,1.322916 q 0.08819,0.118511 0.305924,0.118511 h 0.143316 v 0.206706 H 19.61904 V 23.32699 h 0.14056 q 0.157096,0 0.209461,-0.02756 0.05512,-0.02756 0.05512,-0.06614 0,-0.03859 -0.02756,-0.07717 l -0.700043,-0.981163 -0.377582,0.327973 v 0.65319 q 0,0.07993 0.05237,0.118511 0.07441,0.05236 0.206705,0.05236 h 0.179145 v 0.206706 H 17.97091 v -0.206706 h 0.223242 q 0.137803,0 0.203949,-0.05788 0.06615,-0.05788 0.06615,-0.154341 v -3.186021 q 0,-0.124024 -0.07993,-0.181901 -0.115755,-0.08268 -0.311437,-0.08268 h -0.140559 z"
         style="text-align:center;text-anchor:middle"
         id="path3528" />
    </g>
    <g
       aria-label="src1"
       id="text2763"
       style="font-size:4.93889px;font-family:Century;-inkscape-font-specification:'Century, Normal';fill:#ffffff;stroke-width:0.264583">
      <path
         d="m 3.3447102,36.2007 q 0.1495172,0.417201 0.3424426,0.578776 0.195337,0.159163 0.4799019,0.159163 0.2628609,0 0.4027318,-0.113343 0.1422824,-0.115756 0.1422824,-0.2918 0,-0.101286 -0.053054,-0.176045 -0.050643,-0.07717 -0.1422825,-0.113343 -0.09164,-0.03858 -0.4750788,-0.110932 -0.3665582,-0.07235 -0.5112523,-0.151929 -0.144694,-0.07958 -0.2266873,-0.219453 -0.079582,-0.139871 -0.079582,-0.303857 0,-0.248392 0.1663981,-0.450963 0.2146295,-0.258038 0.6004803,-0.258038 0.2942112,0 0.5450142,0.185691 l 0.1591635,-0.16881 h 0.098874 l 0.062701,0.805464 H 4.695188 q -0.106109,-0.342443 -0.2869765,-0.49196 -0.1808676,-0.151929 -0.44614,-0.151929 -0.2290989,0 -0.3593235,0.113344 -0.1302247,0.110932 -0.1302247,0.272507 0,0.142282 0.1205784,0.236333 0.1181668,0.09646 0.4630209,0.151929 0.4003202,0.06752 0.5208986,0.113344 0.1977485,0.07235 0.306269,0.224276 0.1085206,0.149517 0.1085206,0.366558 0,0.299034 -0.2363336,0.506429 -0.2339221,0.207395 -0.5956572,0.207395 -0.3352078,0 -0.6221844,-0.221864 L 3.3615912,37.100214 H 3.2337781 L 3.1855468,36.2007 Z"
         id="path3531" />
      <path
         d="m 5.3246071,34.792344 0.8126982,-0.041 v 0.913984 q 0.1302247,-0.450963 0.3135038,-0.682474 0.1832791,-0.23151 0.4533747,-0.23151 0.1832791,0 0.2917996,0.113343 0.1109321,0.110932 0.1109321,0.299035 0,0.151928 -0.074759,0.236333 -0.072347,0.08441 -0.1832791,0.08441 -0.1085205,0 -0.1760444,-0.07235 -0.065112,-0.07235 -0.065112,-0.195337 0,-0.07958 0.038585,-0.149517 0.036174,-0.0627 0.036174,-0.07476 0,-0.03617 -0.04582,-0.03617 -0.098874,0 -0.2242758,0.115755 -0.1736328,0.161575 -0.267684,0.443728 -0.144694,0.438906 -0.144694,0.701767 v 0.484725 q 0,0.08199 0.057878,0.125401 0.057878,0.04341 0.1977485,0.04341 h 0.2869766 v 0.180868 H 5.3390765 v -0.180868 h 0.2242758 q 0.1133437,0 0.1712213,-0.04341 0.057878,-0.04582 0.057878,-0.10852 v -1.439706 q 0,-0.163987 -0.069935,-0.238745 -0.069935,-0.07717 -0.2001601,-0.07717 H 5.3246071 Z"
         id="path3533" />
      <path
         d="m 9.279578,36.381567 0.1567518,0.04582 q -0.1881022,0.69212 -0.8295791,0.69212 -0.4702557,0 -0.76929,-0.311092 -0.2990344,-0.311093 -0.2990344,-0.827168 0,-0.598069 0.3279732,-0.926042 0.3279731,-0.330385 0.7717015,-0.330385 0.3327963,0 0.5498374,0.183279 0.2170411,0.18328 0.2170411,0.407555 0,0.135048 -0.081993,0.224276 -0.079582,0.08682 -0.1905139,0.08682 -0.1085205,0 -0.1832791,-0.07476 -0.074759,-0.07476 -0.074759,-0.180868 0,-0.106109 0.081993,-0.202571 0.038585,-0.04582 0.038585,-0.07235 0,-0.06994 -0.094051,-0.135048 -0.094051,-0.06752 -0.2556262,-0.06752 -0.2942112,0 -0.4461399,0.21463 -0.2170411,0.311092 -0.2170411,0.819932 0,0.484726 0.1929254,0.735529 0.1929254,0.248391 0.4919597,0.248391 0.4123781,0 0.6125382,-0.530545 z"
         id="path3535" />
      <path
         d="m 11.259475,33.707139 v 3.009636 q 0,0.06752 0.04823,0.103697 0.06994,0.05064 0.171221,0.05064 h 0.467845 v 0.180868 h -1.733917 v -0.180868 h 0.40032 q 0.125401,0 0.18569,-0.05788 0.06029,-0.06029 0.06029,-0.159164 v -2.274108 q 0,-0.06994 -0.05547,-0.118167 -0.05547,-0.04823 -0.142283,-0.04823 H 10.126038 V 34.04717 q 0.376205,-0.04823 0.610127,-0.127813 0.233922,-0.08199 0.412378,-0.212218 z"
         id="path3537" />
    </g>
    <g
       aria-label="src2"
       id="text2767"
       style="font-size:4.93889px;font-family:Century;-inkscape-font-specification:'Century, Normal';fill:#ffffff;stroke-width:0.264583">
      <path
         d="m 3.2916554,51.438287 q 0.1495172,0.417201 0.3424426,0.578776 0.195337,0.159163 0.4799019,0.159163 0.2628609,0 0.4027318,-0.113343 0.1422824,-0.115756 0.1422824,-0.2918 0,-0.101286 -0.053054,-0.176045 -0.050643,-0.07717 -0.1422825,-0.113343 -0.09164,-0.03859 -0.4750788,-0.110932 -0.3665582,-0.07235 -0.5112523,-0.151929 -0.144694,-0.07958 -0.2266873,-0.219453 -0.079582,-0.139871 -0.079582,-0.303857 0,-0.248392 0.1663981,-0.450963 0.2146295,-0.258038 0.6004803,-0.258038 0.2942112,0 0.5450142,0.185691 l 0.1591635,-0.16881 h 0.098874 l 0.062701,0.805463 H 4.6421332 Q 4.5360242,50.466425 4.3551566,50.316908 4.1742891,50.164979 3.9090167,50.164979 q -0.2290989,0 -0.3593236,0.113344 -0.1302246,0.110932 -0.1302246,0.272507 0,0.142282 0.1205784,0.236333 0.1181668,0.09646 0.4630209,0.151929 0.4003202,0.06752 0.5208986,0.113344 0.1977485,0.07235 0.306269,0.224276 0.1085206,0.149517 0.1085206,0.366558 0,0.299034 -0.2363337,0.506429 -0.233922,0.207395 -0.5956571,0.207395 -0.3352079,0 -0.6221844,-0.221864 L 3.3085364,52.337801 H 3.1807233 L 3.132492,51.438287 Z"
         id="path3540" />
      <path
         d="m 5.2715523,50.029931 0.8126982,-0.041 v 0.913984 q 0.1302247,-0.450963 0.3135038,-0.682474 0.1832791,-0.23151 0.4533747,-0.23151 0.1832791,0 0.2917996,0.113343 0.1109321,0.110932 0.1109321,0.299035 0,0.151928 -0.074759,0.236333 -0.072347,0.08441 -0.1832791,0.08441 -0.1085205,0 -0.1760444,-0.07235 -0.065112,-0.07235 -0.065112,-0.195337 0,-0.07958 0.038585,-0.149517 0.036174,-0.0627 0.036174,-0.07476 0,-0.03617 -0.04582,-0.03617 -0.098874,0 -0.2242758,0.115755 -0.1736328,0.161575 -0.267684,0.443728 -0.144694,0.438906 -0.144694,0.701767 v 0.484725 q 0,0.08199 0.057878,0.125401 0.057878,0.04341 0.1977485,0.04341 H 6.6895539 V 52.28957 H 5.2860217 v -0.180868 h 0.2242758 q 0.1133437,0 0.1712213,-0.04341 0.057878,-0.04582 0.057878,-0.10852 v -1.439706 q 0,-0.163987 -0.069936,-0.238745 -0.069935,-0.07717 -0.20016,-0.07717 H 5.2715523 Z"
         id="path3542" />
      <path
         d="m 9.2265231,51.619154 0.1567519,0.04582 q -0.1881022,0.69212 -0.8295791,0.69212 -0.4702557,0 -0.76929,-0.311092 -0.2990344,-0.311093 -0.2990344,-0.827168 0,-0.598069 0.3279732,-0.926042 0.3279731,-0.330385 0.7717015,-0.330385 0.3327963,0 0.5498374,0.183279 0.2170411,0.18328 0.2170411,0.407555 0,0.135048 -0.081993,0.224276 -0.079582,0.08682 -0.1905139,0.08682 -0.1085205,0 -0.1832791,-0.07476 -0.074759,-0.07476 -0.074759,-0.180868 0,-0.106109 0.081993,-0.202571 0.038585,-0.04582 0.038585,-0.07235 0,-0.06994 -0.094051,-0.135048 -0.094051,-0.06752 -0.2556262,-0.06752 -0.2942112,0 -0.4461399,0.21463 -0.2170411,0.311092 -0.2170411,0.819932 0,0.484726 0.1929254,0.735529 0.1929254,0.248391 0.4919597,0.248391 0.4123781,0 0.6125381,-0.530545 z"
         id="path3544" />
      <path
         d="m 10.306905,51.761437 q -0.110932,0.142282 1.094852,0.142282 0.180868,0 0.258038,-0.09405 0.07717,-0.09405 0.176044,-0.520899 h 0.163987 l -0.07717,1.000801 H 9.7618912 v -0.130225 l 0.7017658,-0.798229 q 0.586011,-0.636653 0.704178,-0.80064 0.16881,-0.233922 0.24598,-0.450963 0.07717,-0.219453 0.07717,-0.397909 0,-0.296622 -0.163987,-0.465432 -0.163986,-0.171221 -0.455786,-0.171221 -0.327973,0 -0.535368,0.156751 -0.207395,0.156752 -0.207395,0.332797 0,0.06029 0.03135,0.09164 0.02894,0.03135 0.125401,0.05547 0.243569,0.05788 0.243569,0.284565 0,0.12299 -0.08199,0.204984 -0.08199,0.07958 -0.209806,0.07958 -0.147106,0 -0.2580377,-0.135048 -0.1109321,-0.137459 -0.1109321,-0.356912 0,-0.245979 0.1254015,-0.446139 0.1278133,-0.202572 0.3834393,-0.330385 0.255626,-0.130225 0.549837,-0.130225 0.2918,0 0.540191,0.125402 0.250803,0.125401 0.376205,0.330384 0.125401,0.202572 0.125401,0.443729 0,0.166398 -0.0627,0.337619 -0.0627,0.171222 -0.18328,0.320739 -0.207394,0.258037 -0.426847,0.441317 l -0.636654,0.535367 q -0.241156,0.202572 -0.352089,0.344855 z"
         id="path3546" />
    </g>
    <g
       aria-label="src3"
       id="text2771"
       style="font-size:4.93889px;font-family:Century;-inkscape-font-specification:'Century, Normal';fill:#ffffff;stroke-width:0.264583">
      <path
         d="m 3.2663335,66.67587 q 0.1495172,0.417201 0.3424425,0.578776 0.195337,0.159163 0.4799019,0.159163 0.2628609,0 0.4027318,-0.113343 0.1422825,-0.115756 0.1422825,-0.2918 0,-0.101286 -0.053055,-0.176044 -0.050643,-0.07717 -0.1422825,-0.113344 -0.09164,-0.03858 -0.4750788,-0.110932 -0.3665582,-0.07235 -0.5112522,-0.151929 -0.1446941,-0.07958 -0.2266874,-0.219453 -0.079582,-0.13987 -0.079582,-0.303857 0,-0.248391 0.1663982,-0.450963 0.2146295,-0.258038 0.6004802,-0.258038 0.2942112,0 0.5450143,0.185691 l 0.1591634,-0.16881 h 0.098874 l 0.062701,0.805464 h -0.161575 q -0.106109,-0.342443 -0.2869765,-0.49196 -0.1808676,-0.151929 -0.44614,-0.151929 -0.2290989,0 -0.3593235,0.113344 -0.1302247,0.110932 -0.1302247,0.272507 0,0.142282 0.1205784,0.236334 0.1181668,0.09646 0.4630209,0.151928 0.4003202,0.06752 0.5208986,0.113344 0.1977485,0.07235 0.3062691,0.224276 0.1085205,0.149517 0.1085205,0.366558 0,0.299034 -0.2363336,0.506429 -0.233922,0.207395 -0.5956572,0.207395 -0.3352078,0 -0.6221843,-0.221864 L 3.2832144,67.575384 H 3.1554014 L 3.10717,66.67587 Z"
         id="path3549" />
      <path
         d="m 5.2462304,65.267514 0.8126982,-0.041 v 0.913984 q 0.1302246,-0.450963 0.3135037,-0.682474 0.1832792,-0.23151 0.4533747,-0.23151 0.1832791,0 0.2917997,0.113343 0.1109321,0.110933 0.1109321,0.299035 0,0.151929 -0.074759,0.236333 -0.072347,0.0844 -0.1832792,0.0844 -0.1085205,0 -0.1760444,-0.07235 -0.065112,-0.07235 -0.065112,-0.195337 0,-0.07958 0.038585,-0.149517 0.036174,-0.0627 0.036174,-0.07476 0,-0.03617 -0.04582,-0.03617 -0.098874,0 -0.2242758,0.115755 -0.1736328,0.161575 -0.2676839,0.443729 -0.1446941,0.438905 -0.1446941,0.701766 v 0.484725 q 0,0.08199 0.057878,0.125401 0.057878,0.04341 0.1977486,0.04341 H 6.664232 v 0.180868 H 5.2606998 v -0.180868 h 0.2242757 q 0.1133437,0 0.1712213,-0.04341 0.057878,-0.04582 0.057878,-0.10852 v -1.439706 q 0,-0.163987 -0.069935,-0.238745 -0.069935,-0.07717 -0.2001601,-0.07717 H 5.2462304 Z"
         id="path3551" />
      <path
         d="m 9.2012012,66.856737 0.1567519,0.04582 q -0.1881023,0.69212 -0.8295792,0.69212 -0.4702556,0 -0.76929,-0.311092 -0.2990344,-0.311092 -0.2990344,-0.827168 0,-0.598069 0.3279732,-0.926042 0.3279732,-0.330385 0.7717016,-0.330385 0.3327963,0 0.5498373,0.18328 0.2170411,0.183279 0.2170411,0.407555 0,0.135047 -0.081993,0.224275 -0.079582,0.08682 -0.1905138,0.08682 -0.1085206,0 -0.1832791,-0.07476 -0.074759,-0.07476 -0.074759,-0.180867 0,-0.106109 0.081993,-0.202572 0.038585,-0.04582 0.038585,-0.07235 0,-0.06994 -0.094051,-0.135048 Q 8.728534,65.3688 8.566959,65.3688 q -0.2942113,0 -0.44614,0.21463 -0.2170411,0.311092 -0.2170411,0.819933 0,0.484725 0.1929254,0.735528 0.1929254,0.248391 0.4919598,0.248391 0.412378,0 0.6125381,-0.530545 z"
         id="path3553" />
      <path
         d="m 11.241387,65.745005 q 0.344854,0.0844 0.53778,0.279742 0.24598,0.248391 0.24598,0.614949 0,0.41479 -0.294212,0.665593 -0.335207,0.289388 -0.872987,0.289388 -0.32315,0 -0.557072,-0.106109 -0.23151,-0.106109 -0.3472657,-0.286977 -0.1157552,-0.180867 -0.1157552,-0.407554 0,-0.18328 0.089228,-0.289389 0.089228,-0.106109 0.2242759,-0.106109 0.12299,0 0.197748,0.08199 0.07476,0.07958 0.07476,0.219452 0,0.08923 -0.03858,0.151929 -0.03859,0.06029 -0.135048,0.113344 -0.103697,0.05547 -0.103697,0.106109 0,0.07235 0.07235,0.163986 0.07476,0.08923 0.217041,0.144694 0.144694,0.05306 0.364146,0.05306 0.378617,0 0.559484,-0.185691 0.183279,-0.188102 0.183279,-0.60048 0,-0.431671 -0.156752,-0.612538 -0.15434,-0.183279 -0.460609,-0.183279 -0.08199,0 -0.204983,0.01929 -0.09888,0.01447 -0.142283,0.01447 -0.07235,0 -0.113343,-0.02894 -0.03858,-0.03135 -0.03858,-0.07717 0,-0.05064 0.03617,-0.07717 0.03858,-0.02894 0.12299,-0.02894 l 0.132636,0.0048 0.115755,0.0048 q 0.306269,0 0.46061,-0.156752 0.15434,-0.156752 0.15434,-0.484725 0,-0.402732 -0.147106,-0.571541 -0.147105,-0.171222 -0.438905,-0.171222 -0.267684,0 -0.426847,0.09646 -0.159164,0.09646 -0.159164,0.178456 0,0.05305 0.09164,0.142282 0.130225,0.120579 0.130225,0.250803 0,0.09887 -0.07235,0.166399 -0.07235,0.06752 -0.185691,0.06752 -0.120579,0 -0.197749,-0.09164 -0.074758,-0.09164 -0.074758,-0.255626 0,-0.255626 0.1832793,-0.453375 0.260449,-0.279742 0.745174,-0.279742 0.453375,0 0.72347,0.243569 0.270096,0.243568 0.270096,0.602891 0,0.258038 -0.147106,0.44614 -0.144694,0.188103 -0.501606,0.332797 z"
         id="path3555" />
    </g>
    <g
       aria-label="src4"
       id="text2775"
       style="font-size:4.93889px;font-family:Century;-inkscape-font-specification:'Century, Normal';fill:#ffffff;stroke-width:0.264583">
      <path
         d="m 3.2301635,81.980984 q 0.1495171,0.417202 0.3424425,0.578777 0.195337,0.159163 0.4799019,0.159163 0.2628609,0 0.4027318,-0.113344 0.1422825,-0.115755 0.1422825,-0.291799 0,-0.101286 -0.053055,-0.176045 -0.050643,-0.07717 -0.1422825,-0.113343 -0.09164,-0.03858 -0.4750788,-0.110932 -0.3665582,-0.07235 -0.5112522,-0.151929 -0.1446941,-0.07958 -0.2266874,-0.219453 -0.079582,-0.139871 -0.079582,-0.303857 0,-0.248392 0.1663981,-0.450963 0.2146295,-0.258038 0.6004803,-0.258038 0.2942112,0 0.5450143,0.185691 l 0.1591634,-0.16881 h 0.098874 l 0.062701,0.805463 h -0.161575 q -0.106109,-0.342442 -0.2869765,-0.491959 -0.1808676,-0.151929 -0.44614,-0.151929 -0.2290989,0 -0.3593235,0.113344 -0.1302247,0.110932 -0.1302247,0.272507 0,0.142282 0.1205784,0.236333 0.1181668,0.09646 0.4630209,0.151929 0.4003202,0.06752 0.5208986,0.113344 0.1977485,0.07235 0.3062691,0.224275 0.1085205,0.149518 0.1085205,0.366559 0,0.299034 -0.2363336,0.506429 -0.2339221,0.207395 -0.5956572,0.207395 -0.3352078,0 -0.6221843,-0.221865 L 3.2470444,82.880499 H 3.1192314 L 3.071,81.980984 Z"
         id="path3558" />
      <path
         d="m 5.2100604,80.572629 0.8126982,-0.041 v 0.913985 q 0.1302246,-0.450964 0.3135037,-0.682474 0.1832791,-0.231511 0.4533747,-0.231511 0.1832791,0 0.2917996,0.113344 0.1109321,0.110932 0.1109321,0.299035 0,0.151928 -0.074759,0.236333 -0.072347,0.0844 -0.1832792,0.0844 -0.1085205,0 -0.1760444,-0.07235 -0.065112,-0.07235 -0.065112,-0.195337 0,-0.07958 0.038585,-0.149517 0.036174,-0.0627 0.036174,-0.07476 0,-0.03617 -0.04582,-0.03617 -0.098874,0 -0.2242758,0.115755 -0.1736328,0.161575 -0.2676839,0.443728 -0.1446941,0.438906 -0.1446941,0.701766 v 0.484725 q 0,0.08199 0.057878,0.125402 0.057878,0.04341 0.1977486,0.04341 H 6.628062 v 0.180868 H 5.2245298 V 82.6514 h 0.2242757 q 0.1133437,0 0.1712213,-0.04341 0.057878,-0.04582 0.057878,-0.108521 v -1.439705 q 0,-0.163987 -0.069935,-0.238745 -0.069935,-0.07717 -0.2001601,-0.07717 H 5.2100604 Z"
         id="path3560" />
      <path
         d="m 9.1650312,82.161852 0.1567519,0.04582 q -0.1881023,0.69212 -0.8295792,0.69212 -0.4702557,0 -0.76929,-0.311093 -0.2990344,-0.311092 -0.2990344,-0.827167 0,-0.598069 0.3279732,-0.926042 0.3279732,-0.330385 0.7717016,-0.330385 0.3327963,0 0.5498373,0.183279 0.2170411,0.183279 0.2170411,0.407555 0,0.135048 -0.081993,0.224276 -0.079582,0.08682 -0.1905138,0.08682 -0.1085206,0 -0.1832791,-0.07476 -0.074759,-0.07476 -0.074759,-0.180868 0,-0.106109 0.081993,-0.202571 0.038585,-0.04582 0.038585,-0.07235 0,-0.06994 -0.094051,-0.135048 -0.094051,-0.06752 -0.2556261,-0.06752 -0.2942113,0 -0.44614,0.214629 -0.2170411,0.311093 -0.2170411,0.819933 0,0.484725 0.1929254,0.735528 0.1929254,0.248392 0.4919598,0.248392 0.412378,0 0.6125381,-0.530545 z"
         id="path3562" />
      <path
         d="m 11.349911,79.487424 h 0.156752 v 2.281343 h 0.554661 v 0.204983 h -0.554661 v 0.513664 q 0,0.06752 0.05306,0.10852 0.07717,0.05547 0.178456,0.05547 h 0.204983 v 0.180868 h -1.33842 V 82.6514 h 0.248391 q 0.125402,0 0.18328,-0.05305 0.06029,-0.05306 0.06029,-0.154341 V 81.97375 H 9.7317496 v -0.231511 z m -0.253214,0.653535 -1.1647873,1.627808 h 1.1647873 z"
         id="path3564" />
    </g>
    <g
       aria-label="src5"
       id="text2779"
       style="font-size:4.93889px;font-family:Century;-inkscape-font-specification:'Century, Normal';fill:#ffffff;stroke-width:0.264583">
      <path
         d="m 3.2687463,97.218571 q 0.1495171,0.417202 0.3424425,0.578777 0.195337,0.159163 0.4799019,0.159163 0.2628609,0 0.4027318,-0.113344 0.1422825,-0.115755 0.1422825,-0.291799 0,-0.101286 -0.053055,-0.176045 Q 4.5324076,97.298153 4.440768,97.26198 4.3491285,97.223395 3.9656892,97.151048 3.599131,97.078701 3.454437,96.999119 3.3097429,96.919537 3.2277496,96.779666 q -0.079582,-0.139871 -0.079582,-0.303857 0,-0.248392 0.1663982,-0.450963 0.2146294,-0.258038 0.6004802,-0.258038 0.2942112,0 0.5450143,0.185691 l 0.1591634,-0.16881 h 0.098874 l 0.062701,0.805463 H 4.619224 Q 4.513115,96.24671 4.3322475,96.097193 q -0.1808676,-0.151929 -0.44614,-0.151929 -0.2290989,0 -0.3593235,0.113344 -0.1302247,0.110932 -0.1302247,0.272507 0,0.142282 0.1205784,0.236333 0.1181668,0.09646 0.4630209,0.151929 0.4003202,0.06752 0.5208986,0.113344 0.1977485,0.07235 0.3062691,0.224275 0.1085205,0.149518 0.1085205,0.366559 0,0.299034 -0.2363336,0.506429 -0.2339221,0.207395 -0.5956572,0.207395 -0.3352078,0 -0.6221843,-0.221865 l -0.1760445,0.202572 h -0.127813 l -0.048231,-0.899515 z"
         id="path3567" />
      <path
         d="m 5.2486432,95.810216 0.8126982,-0.041 v 0.913984 Q 6.191566,96.23224 6.3748451,96.00073 q 0.1832792,-0.231511 0.4533747,-0.231511 0.1832791,0 0.2917996,0.113344 0.1109321,0.110932 0.1109321,0.299034 0,0.151929 -0.074758,0.236334 -0.072347,0.08441 -0.1832792,0.08441 -0.1085205,0 -0.1760444,-0.07235 -0.065112,-0.07235 -0.065112,-0.195337 0,-0.07958 0.038585,-0.149517 0.036174,-0.0627 0.036174,-0.07476 0,-0.03617 -0.04582,-0.03617 -0.098874,0 -0.2242758,0.115755 -0.1736328,0.161575 -0.2676839,0.443728 -0.1446941,0.438906 -0.1446941,0.701766 v 0.484725 q 0,0.08199 0.057878,0.125402 0.057878,0.04341 0.1977486,0.04341 h 0.2869765 v 0.180868 H 5.2631126 v -0.180868 h 0.2242757 q 0.1133437,0 0.1712213,-0.04341 0.057878,-0.04582 0.057878,-0.108521 v -1.439705 q 0,-0.163987 -0.069935,-0.238745 -0.069935,-0.07717 -0.2001601,-0.07717 H 5.2486432 Z"
         id="path3569" />
      <path
         d="m 9.203614,97.399439 0.1567519,0.04582 q -0.1881023,0.69212 -0.8295792,0.69212 -0.4702557,0 -0.76929,-0.311093 -0.2990344,-0.311092 -0.2990344,-0.827167 0,-0.598069 0.3279732,-0.926042 0.3279732,-0.330385 0.7717016,-0.330385 0.3327963,0 0.5498373,0.183279 0.2170411,0.183279 0.2170411,0.407555 0,0.135048 -0.081993,0.224276 -0.079582,0.08682 -0.1905138,0.08682 -0.1085206,0 -0.1832791,-0.07476 -0.074759,-0.07476 -0.074759,-0.180868 0,-0.106109 0.081993,-0.202571 0.038585,-0.04582 0.038585,-0.07235 0,-0.06994 -0.094051,-0.135048 -0.094051,-0.06752 -0.2556261,-0.06752 -0.2942113,0 -0.44614,0.214629 -0.2170411,0.311093 -0.2170411,0.819933 0,0.484725 0.1929254,0.735528 0.1929254,0.248392 0.4919598,0.248392 0.412378,0 0.6125381,-0.530545 z"
         id="path3571" />
      <path
         d="m 10.175476,94.66231 q 0.610126,0.139871 0.995977,0.139871 0.180868,0 0.340031,-0.03376 0.159163,-0.03617 0.238745,-0.08199 0.041,-0.0217 0.05306,-0.0217 0.02412,0 0.02412,0.03617 0,0.08441 -0.10852,0.224276 -0.108521,0.137459 -0.296623,0.219453 -0.185691,0.08199 -0.429259,0.08199 -0.282153,0 -0.672827,-0.08682 l -0.07958,0.921219 q 0.183279,-0.09164 0.349677,-0.137459 0.166398,-0.04582 0.315916,-0.04582 0.472667,0 0.793405,0.313504 0.32315,0.313504 0.32315,0.774113 0,0.511252 -0.342442,0.841637 -0.342443,0.330385 -0.887457,0.330385 -0.417201,0 -0.680062,-0.236334 -0.2604493,-0.238745 -0.2604493,-0.566718 0,-0.197749 0.081993,-0.303858 0.084405,-0.10852 0.214629,-0.10852 0.127814,0 0.207395,0.08682 0.08199,0.08441 0.08199,0.221864 0,0.103698 -0.041,0.161575 -0.03858,0.05788 -0.144694,0.09646 -0.106109,0.041 -0.106109,0.09405 0,0.07717 0.07235,0.171221 0.07235,0.09164 0.217041,0.151929 0.147106,0.05788 0.335208,0.05788 0.36897,0 0.561895,-0.229099 0.195337,-0.229099 0.195337,-0.745174 0,-0.470256 -0.204983,-0.687297 -0.204983,-0.217041 -0.52331,-0.217041 -0.144694,0 -0.289388,0.05305 -0.144694,0.05306 -0.289388,0.159164 -0.01688,0.168809 -0.06029,0.226687 -0.04341,0.05547 -0.110932,0.05547 -0.04823,0 -0.07717,-0.03376 -0.028939,-0.03376 -0.028939,-0.09405 0,-0.106109 0.098875,-0.209806 0.02894,-0.03135 0.041,-0.05547 l 0.05547,-0.709001 q 0.03376,-0.419613 0.03617,-0.81511 z"
         id="path3573" />
    </g>
    <g
       aria-label="src6"
       id="text2783"
       style="font-size:4.93889px;font-family:Century;-inkscape-font-specification:'Century, Normal';fill:#ffffff;stroke-width:0.264583">
      <path
         d="m 3.2361897,112.52368 q 0.1495172,0.4172 0.3424426,0.57877 0.195337,0.15917 0.4799019,0.15917 0.2628609,0 0.4027318,-0.11335 0.1422824,-0.11575 0.1422824,-0.2918 0,-0.10128 -0.053054,-0.17604 -0.050643,-0.0772 -0.1422825,-0.11334 -0.09164,-0.0386 -0.4750788,-0.11094 -0.3665582,-0.0723 -0.5112523,-0.15192 -0.144694,-0.0796 -0.2266873,-0.21946 -0.079582,-0.13987 -0.079582,-0.30385 0,-0.2484 0.1663981,-0.45097 0.2146295,-0.25803 0.6004803,-0.25803 0.2942112,0 0.5450142,0.18569 l 0.1591635,-0.16881 h 0.098874 l 0.062701,0.80546 h -0.161575 q -0.106109,-0.34244 -0.2869766,-0.49196 -0.1808675,-0.15193 -0.4461399,-0.15193 -0.2290989,0 -0.3593236,0.11334 -0.1302246,0.11094 -0.1302246,0.27251 0,0.14228 0.1205784,0.23634 0.1181668,0.0965 0.4630209,0.15192 0.4003202,0.0675 0.5208986,0.11335 0.1977485,0.0723 0.306269,0.22427 0.1085206,0.14952 0.1085206,0.36656 0,0.29904 -0.2363337,0.50643 -0.233922,0.2074 -0.5956571,0.2074 -0.3352079,0 -0.6221844,-0.22187 l -0.1760444,0.20257 H 3.1252576 l -0.048231,-0.89951 z"
         id="path3576" />
      <path
         d="m 5.2160866,111.11532 0.8126982,-0.041 v 0.91398 q 0.1302247,-0.45096 0.3135038,-0.68247 0.1832791,-0.23151 0.4533747,-0.23151 0.1832791,0 0.2917996,0.11334 0.1109321,0.11093 0.1109321,0.29903 0,0.15193 -0.074759,0.23634 -0.072347,0.0844 -0.1832791,0.0844 -0.1085205,0 -0.1760444,-0.0723 -0.065112,-0.0724 -0.065112,-0.19534 0,-0.0796 0.038585,-0.14952 0.036174,-0.0627 0.036174,-0.0748 0,-0.0362 -0.04582,-0.0362 -0.098874,0 -0.2242758,0.11576 -0.1736328,0.16157 -0.267684,0.44372 -0.144694,0.43891 -0.144694,0.70177 v 0.48472 q 0,0.082 0.057878,0.12541 0.057878,0.0434 0.1977485,0.0434 h 0.2869765 v 0.18087 H 5.230556 v -0.18087 h 0.2242758 q 0.1133437,0 0.1712213,-0.0434 0.057878,-0.0458 0.057878,-0.10852 v -1.43971 q 0,-0.16399 -0.069936,-0.23875 -0.069935,-0.0772 -0.20016,-0.0772 H 5.2160866 Z"
         id="path3578" />
      <path
         d="m 9.1710575,112.70455 0.1567518,0.0458 q -0.1881022,0.69212 -0.8295791,0.69212 -0.4702557,0 -0.76929,-0.3111 -0.2990344,-0.31109 -0.2990344,-0.82716 0,-0.59807 0.3279732,-0.92605 0.3279731,-0.33038 0.7717015,-0.33038 0.3327963,0 0.5498374,0.18328 0.2170411,0.18328 0.2170411,0.40755 0,0.13505 -0.081993,0.22428 -0.079582,0.0868 -0.1905139,0.0868 -0.1085205,0 -0.1832791,-0.0748 -0.074759,-0.0748 -0.074759,-0.18087 0,-0.10611 0.081993,-0.20257 0.038585,-0.0458 0.038585,-0.0724 0,-0.0699 -0.094051,-0.13505 -0.094051,-0.0675 -0.2556262,-0.0675 -0.2942112,0 -0.4461399,0.21463 -0.2170411,0.31109 -0.2170411,0.81993 0,0.48473 0.1929254,0.73553 0.1929254,0.24839 0.4919597,0.24839 0.4123781,0 0.6125382,-0.53054 z"
         id="path3580" />
      <path
         d="m 10.261086,111.79297 q 0.188102,-0.2508 0.395497,-0.35932 0.207395,-0.10852 0.455786,-0.10852 0.40032,0 0.670416,0.27251 0.272507,0.27009 0.272507,0.68488 0,0.4992 -0.320738,0.82958 -0.320739,0.33039 -0.793406,0.33039 -0.332796,0 -0.593246,-0.17605 -0.260449,-0.17845 -0.426847,-0.55466 -0.1639866,-0.3762 -0.1639866,-0.87781 0,-0.5426 0.2025717,-0.98392 0.2025719,-0.44132 0.5160749,-0.66077 0.315916,-0.22186 0.658358,-0.22186 0.352089,0 0.598069,0.19292 0.204983,0.15675 0.204983,0.37621 0,0.1471 -0.09164,0.24115 -0.08923,0.0941 -0.219453,0.0941 -0.120578,0 -0.207395,-0.0796 -0.08441,-0.0796 -0.08441,-0.1881 0,-0.0723 0.05788,-0.16399 0.05306,-0.0844 0.05306,-0.13263 0,-0.0675 -0.06511,-0.11093 -0.08682,-0.0555 -0.238745,-0.0555 -0.233922,0 -0.426847,0.14711 -0.192926,0.1471 -0.327974,0.50642 -0.132636,0.35692 -0.132636,0.80306 0,0.0651 0.0072,0.19533 z m 0.718647,-0.23151 q -0.301446,0 -0.494371,0.21946 -0.190514,0.21704 -0.190514,0.61253 0,0.42926 0.185691,0.65595 0.18569,0.22669 0.472667,0.22669 0.284565,0 0.458198,-0.21463 0.173632,-0.21463 0.173632,-0.64148 0,-0.45337 -0.161575,-0.65595 -0.159163,-0.20257 -0.443728,-0.20257 z"
         id="path3582" />
    </g>
    <g
       aria-label="dst1"
       id="text3298"
       style="font-size:4.93889px;font-family:Century;-inkscape-font-specification:'Century, Normal';fill:#ffffff;stroke-width:0.264583">
      <path
         d="m 19.455804,33.616706 0.882634,-0.041 v 3.091629 q 0,0.180868 0.06752,0.258038 0.06994,0.07717 0.207395,0.07717 h 0.156752 v 0.180867 h -0.771702 l -0.05788,-0.460609 q -0.137459,0.24598 -0.32315,0.371381 -0.183279,0.12299 -0.412378,0.12299 -0.38585,0 -0.658357,-0.32315 -0.270096,-0.32315 -0.270096,-0.853694 0,-0.573954 0.347266,-0.916396 0.272507,-0.267684 0.627007,-0.267684 0.217041,0 0.388263,0.10852 0.173632,0.108521 0.301445,0.327974 v -1.27572 q 0,-0.101285 -0.07958,-0.159163 -0.07717,-0.06029 -0.243569,-0.06029 h -0.161575 z m -0.13987,1.439706 q -0.26045,0 -0.41479,0.21463 -0.151929,0.214629 -0.151929,0.72347 0,0.552249 0.156752,0.778936 0.156752,0.224276 0.402732,0.224276 0.262861,0 0.448551,-0.250803 0.188103,-0.253215 0.188103,-0.73794 0,-0.458198 -0.20016,-0.721058 -0.173633,-0.231511 -0.429259,-0.231511 z"
         id="path3585" />
      <path
         d="m 21.281361,36.332131 q 0.149517,0.417201 0.342443,0.578776 0.195337,0.159164 0.479901,0.159164 0.262861,0 0.402732,-0.113344 0.142283,-0.115755 0.142283,-0.2918 0,-0.101285 -0.05306,-0.176044 -0.05064,-0.07717 -0.142282,-0.113344 -0.09164,-0.03859 -0.475079,-0.110932 -0.366558,-0.07235 -0.511252,-0.151928 -0.144694,-0.07958 -0.226688,-0.219453 -0.07958,-0.139871 -0.07958,-0.303858 0,-0.248391 0.166398,-0.450963 0.214629,-0.258037 0.60048,-0.258037 0.294211,0 0.545014,0.18569 l 0.159164,-0.168809 h 0.09887 l 0.0627,0.805463 h -0.161575 q -0.106109,-0.342442 -0.286977,-0.49196 -0.180867,-0.151928 -0.44614,-0.151928 -0.229099,0 -0.359323,0.113343 -0.130225,0.110932 -0.130225,0.272507 0,0.142283 0.120578,0.236334 0.118167,0.09646 0.463021,0.151929 0.400321,0.06752 0.520899,0.113343 0.197748,0.07235 0.306269,0.224276 0.108521,0.149517 0.108521,0.366558 0,0.299035 -0.236334,0.50643 -0.233922,0.207394 -0.595657,0.207394 -0.335208,0 -0.622185,-0.221864 l -0.176044,0.202572 h -0.127813 l -0.04823,-0.899515 z"
         id="path3587" />
      <path
         d="m 23.890677,34.002557 h 0.163987 v 0.921219 h 0.730705 v 0.221864 h -0.730705 v 1.449352 q 0,0.188102 0.08923,0.289388 0.08923,0.09887 0.226687,0.09887 0.163987,0 0.279742,-0.151928 0.115755,-0.151929 0.135048,-0.501606 h 0.161575 q -0.01447,0.450963 -0.204984,0.670415 -0.190513,0.217041 -0.494371,0.217041 -0.279742,0 -0.438905,-0.151928 -0.156752,-0.154341 -0.156752,-0.402732 V 35.14564 h -0.393085 v -0.16881 q 0.267684,-0.04582 0.407554,-0.224275 0.207395,-0.267684 0.224276,-0.749998 z"
         id="path3589" />
      <path
         d="m 26.733915,33.838571 v 3.009636 q 0,0.06752 0.04823,0.103697 0.06994,0.05064 0.171222,0.05064 h 0.467844 v 0.180867 h -1.733917 v -0.180867 h 0.40032 q 0.125401,0 0.185691,-0.05788 0.06029,-0.06029 0.06029,-0.159163 v -2.274108 q 0,-0.06994 -0.05547,-0.118167 Q 26.222663,34.345 26.135846,34.345 h -0.535368 v -0.166398 q 0.376205,-0.04823 0.610127,-0.127814 0.233922,-0.08199 0.412378,-0.212217 z"
         id="path3591" />
    </g>
    <g
       aria-label="dst2"
       id="text3302"
       style="font-size:4.93889px;font-family:Century;-inkscape-font-specification:'Century, Normal';fill:#ffffff;stroke-width:0.264583">
      <path
         d="m 19.40275,48.82294 0.882633,-0.041 v 3.091629 q 0,0.180868 0.06752,0.258038 0.06994,0.07717 0.207395,0.07717 h 0.156752 v 0.180867 h -0.771702 l -0.05788,-0.460609 q -0.13746,0.24598 -0.32315,0.371381 -0.183279,0.12299 -0.412378,0.12299 -0.385851,0 -0.658358,-0.32315 -0.270096,-0.32315 -0.270096,-0.853694 0,-0.573954 0.347266,-0.916396 0.272507,-0.267684 0.627007,-0.267684 0.217041,0 0.388263,0.10852 0.173633,0.108521 0.301446,0.327974 v -1.27572 q 0,-0.101285 -0.07958,-0.159163 -0.07717,-0.06029 -0.243568,-0.06029 H 19.40275 Z m -0.139871,1.439706 q -0.26045,0 -0.41479,0.21463 -0.151929,0.214629 -0.151929,0.72347 0,0.552249 0.156752,0.778936 0.156752,0.224276 0.402732,0.224276 0.262861,0 0.448552,-0.250803 0.188102,-0.253215 0.188102,-0.73794 0,-0.458198 -0.20016,-0.721059 -0.173633,-0.23151 -0.429259,-0.23151 z"
         id="path3594" />
      <path
         d="m 21.228306,51.538365 q 0.149517,0.417201 0.342443,0.578776 0.195337,0.159164 0.479902,0.159164 0.262861,0 0.402731,-0.113344 0.142283,-0.115755 0.142283,-0.2918 0,-0.101285 -0.05306,-0.176044 -0.05064,-0.07717 -0.142282,-0.113344 -0.09164,-0.03858 -0.475079,-0.110932 -0.366558,-0.07235 -0.511252,-0.151928 -0.144694,-0.07958 -0.226687,-0.219453 -0.07958,-0.139871 -0.07958,-0.303858 0,-0.248391 0.166398,-0.450963 0.214629,-0.258037 0.60048,-0.258037 0.294211,0 0.545014,0.18569 l 0.159164,-0.168809 h 0.09887 l 0.0627,0.805463 h -0.161575 q -0.106109,-0.342442 -0.286977,-0.49196 -0.180867,-0.151928 -0.44614,-0.151928 -0.229098,0 -0.359323,0.113343 -0.130225,0.110932 -0.130225,0.272507 0,0.142283 0.120579,0.236334 0.118166,0.09646 0.463021,0.151929 0.40032,0.06752 0.520898,0.113343 0.197749,0.07235 0.306269,0.224276 0.108521,0.149517 0.108521,0.366558 0,0.299035 -0.236334,0.50643 -0.233922,0.207394 -0.595657,0.207394 -0.335208,0 -0.622184,-0.221864 l -0.176045,0.202572 h -0.127813 l -0.04823,-0.899515 z"
         id="path3596" />
      <path
         d="m 23.837622,49.208791 h 0.163987 v 0.921219 h 0.730705 v 0.221864 h -0.730705 v 1.449352 q 0,0.188102 0.08923,0.289388 0.08923,0.09887 0.226687,0.09887 0.163987,0 0.279742,-0.151928 0.115755,-0.151929 0.135048,-0.501606 h 0.161575 q -0.01447,0.450963 -0.204983,0.670415 -0.190514,0.217041 -0.494372,0.217041 -0.279741,0 -0.438905,-0.151928 -0.156752,-0.154341 -0.156752,-0.402732 v -1.516876 h -0.393085 v -0.16881 q 0.267684,-0.04582 0.407555,-0.224275 0.207394,-0.267684 0.224275,-0.749998 z"
         id="path3598" />
      <path
         d="m 25.781346,51.861515 q -0.110933,0.142283 1.094851,0.142283 0.180868,0 0.258038,-0.09405 0.07717,-0.09405 0.176044,-0.520899 h 0.163987 l -0.07717,1.0008 h -2.160765 v -0.130224 l 0.701766,-0.798229 q 0.586011,-0.636654 0.704178,-0.80064 0.16881,-0.233922 0.24598,-0.450963 0.07717,-0.219453 0.07717,-0.397909 0,-0.296623 -0.163986,-0.465433 -0.163987,-0.171221 -0.455787,-0.171221 -0.327973,0 -0.535368,0.156752 -0.207394,0.156752 -0.207394,0.332796 0,0.06029 0.03135,0.09164 0.02894,0.03135 0.125401,0.05547 0.243569,0.05788 0.243569,0.284565 0,0.12299 -0.08199,0.204983 -0.08199,0.07958 -0.209806,0.07958 -0.147106,0 -0.258038,-0.135048 -0.110932,-0.137459 -0.110932,-0.356912 0,-0.24598 0.125402,-0.44614 0.127813,-0.202572 0.383439,-0.330385 0.255626,-0.130224 0.549837,-0.130224 0.2918,0 0.540191,0.125401 0.250803,0.125402 0.376205,0.330385 0.125401,0.202572 0.125401,0.443728 0,0.166399 -0.0627,0.33762 -0.0627,0.171221 -0.183279,0.320738 -0.207395,0.258038 -0.426848,0.441317 l -0.636654,0.535368 q -0.241156,0.202572 -0.352088,0.344854 z"
         id="path3600" />
    </g>
    <g
       aria-label="dst3"
       id="text3306"
       style="font-size:4.93889px;font-family:Century;-inkscape-font-specification:'Century, Normal';fill:#ffffff;stroke-width:0.264583">
      <path
         d="m 19.377428,63.960445 0.882633,-0.041 v 3.09163 q 0,0.180867 0.06752,0.258037 0.06994,0.07717 0.207395,0.07717 h 0.156752 v 0.180868 H 19.92003 l -0.05788,-0.460609 q -0.13746,0.24598 -0.32315,0.371381 -0.183279,0.12299 -0.412378,0.12299 -0.385851,0 -0.658358,-0.32315 -0.270096,-0.32315 -0.270096,-0.853695 0,-0.573953 0.347266,-0.916396 0.272507,-0.267684 0.627007,-0.267684 0.217041,0 0.388263,0.108521 0.173633,0.108521 0.301446,0.327973 v -1.275719 q 0,-0.101286 -0.07958,-0.159163 -0.07717,-0.06029 -0.243568,-0.06029 h -0.161575 z m -0.139871,1.439706 q -0.26045,0 -0.41479,0.214629 -0.151929,0.21463 -0.151929,0.72347 0,0.552249 0.156752,0.778937 0.156752,0.224275 0.402732,0.224275 0.262861,0 0.448552,-0.250803 0.188102,-0.253214 0.188102,-0.737939 0,-0.458198 -0.20016,-0.721059 -0.173633,-0.23151 -0.429259,-0.23151 z"
         id="path3603" />
      <path
         d="m 21.202984,66.67587 q 0.149517,0.417201 0.342443,0.578776 0.195337,0.159163 0.479902,0.159163 0.262861,0 0.402731,-0.113343 0.142283,-0.115756 0.142283,-0.2918 0,-0.101286 -0.05306,-0.176044 -0.05064,-0.07717 -0.142282,-0.113344 -0.09164,-0.03858 -0.475079,-0.110932 -0.366558,-0.07235 -0.511252,-0.151929 -0.144694,-0.07958 -0.226687,-0.219453 -0.07958,-0.13987 -0.07958,-0.303857 0,-0.248391 0.166398,-0.450963 0.21463,-0.258038 0.60048,-0.258038 0.294212,0 0.545015,0.185691 l 0.159163,-0.16881 h 0.09887 l 0.0627,0.805464 h -0.161575 q -0.106109,-0.342443 -0.286977,-0.49196 -0.180867,-0.151929 -0.44614,-0.151929 -0.229098,0 -0.359323,0.113344 -0.130225,0.110932 -0.130225,0.272507 0,0.142282 0.120579,0.236334 0.118166,0.09646 0.463021,0.151928 0.40032,0.06752 0.520898,0.113344 0.197749,0.07235 0.306269,0.224276 0.108521,0.149517 0.108521,0.366558 0,0.299034 -0.236334,0.506429 -0.233922,0.207395 -0.595657,0.207395 -0.335208,0 -0.622184,-0.221864 l -0.176045,0.202571 h -0.127813 l -0.04823,-0.899514 z"
         id="path3605" />
      <path
         d="m 23.8123,64.346296 h 0.163987 v 0.921218 h 0.730705 v 0.221865 h -0.730705 v 1.449352 q 0,0.188102 0.08923,0.289388 0.08923,0.09887 0.226687,0.09887 0.163987,0 0.279742,-0.151929 0.115755,-0.151929 0.135048,-0.501606 h 0.161575 q -0.01447,0.450963 -0.204983,0.670416 -0.190514,0.217041 -0.494372,0.217041 -0.279741,0 -0.438905,-0.151929 -0.156752,-0.15434 -0.156752,-0.402732 V 65.489379 H 23.18047 v -0.16881 q 0.267684,-0.04582 0.407555,-0.224276 0.207394,-0.267684 0.224275,-0.749997 z"
         id="path3607" />
      <path
         d="m 26.715827,65.745005 q 0.344855,0.0844 0.53778,0.279742 0.24598,0.248391 0.24598,0.614949 0,0.41479 -0.294211,0.665593 -0.335208,0.289388 -0.872988,0.289388 -0.32315,0 -0.557072,-0.106109 -0.23151,-0.106109 -0.347266,-0.286977 -0.115755,-0.180867 -0.115755,-0.407554 0,-0.18328 0.08923,-0.289389 0.08923,-0.106109 0.224276,-0.106109 0.12299,0 0.197748,0.08199 0.07476,0.07958 0.07476,0.219452 0,0.08923 -0.03859,0.151929 -0.03859,0.06029 -0.135048,0.113344 -0.103697,0.05547 -0.103697,0.106109 0,0.07235 0.07235,0.163986 0.07476,0.08923 0.217041,0.144694 0.144694,0.05306 0.364147,0.05306 0.378616,0 0.559483,-0.185691 0.183279,-0.188102 0.183279,-0.60048 0,-0.431671 -0.156752,-0.612538 -0.15434,-0.183279 -0.460609,-0.183279 -0.08199,0 -0.204983,0.01929 -0.09887,0.01447 -0.142283,0.01447 -0.07235,0 -0.113343,-0.02894 -0.03858,-0.03135 -0.03858,-0.07717 0,-0.05064 0.03617,-0.07717 0.03859,-0.02894 0.12299,-0.02894 l 0.132636,0.0048 0.115755,0.0048 q 0.30627,0 0.46061,-0.156752 0.15434,-0.156752 0.15434,-0.484725 0,-0.402732 -0.147105,-0.571541 -0.147106,-0.171222 -0.438906,-0.171222 -0.267684,0 -0.426847,0.09646 -0.159164,0.09646 -0.159164,0.178456 0,0.05305 0.09164,0.142282 0.130225,0.120579 0.130225,0.250803 0,0.09887 -0.07235,0.166399 -0.07235,0.06752 -0.185691,0.06752 -0.120578,0 -0.197749,-0.09164 -0.07476,-0.09164 -0.07476,-0.255626 0,-0.255626 0.183279,-0.453375 0.260449,-0.279742 0.745174,-0.279742 0.453375,0 0.72347,0.243569 0.270096,0.243568 0.270096,0.602891 0,0.258038 -0.147106,0.44614 -0.144694,0.188103 -0.501606,0.332797 z"
         id="path3609" />
    </g>
    <g
       aria-label="dst4"
       id="text3310"
       style="font-size:4.93889px;font-family:Century;-inkscape-font-specification:'Century, Normal';fill:#ffffff;stroke-width:0.264583">
      <path
         d="m 19.341257,79.26556 0.882633,-0.041 v 3.091629 q 0,0.180868 0.06752,0.258038 0.06994,0.07717 0.207395,0.07717 h 0.156752 v 0.180868 h -0.771702 l -0.05788,-0.46061 q -0.13746,0.24598 -0.32315,0.371382 -0.183279,0.12299 -0.412378,0.12299 -0.385851,0 -0.658358,-0.32315 Q 18.162,82.21973 18.162,81.689185 q 0,-0.573953 0.347266,-0.916396 0.272507,-0.267684 0.627007,-0.267684 0.217042,0 0.388263,0.108521 0.173633,0.10852 0.301446,0.327973 V 79.66588 q 0,-0.101286 -0.07958,-0.159164 -0.07717,-0.06029 -0.243568,-0.06029 h -0.161575 z m -0.139871,1.439705 q -0.260449,0 -0.41479,0.21463 -0.151929,0.214629 -0.151929,0.72347 0,0.552249 0.156752,0.778936 0.156752,0.224276 0.402732,0.224276 0.262861,0 0.448552,-0.250803 0.188102,-0.253215 0.188102,-0.73794 0,-0.458197 -0.20016,-0.721058 -0.173633,-0.231511 -0.429259,-0.231511 z"
         id="path3612" />
      <path
         d="m 21.166813,81.980984 q 0.149517,0.417202 0.342443,0.578777 0.195337,0.159163 0.479902,0.159163 0.262861,0 0.402731,-0.113344 0.142283,-0.115755 0.142283,-0.291799 0,-0.101286 -0.05306,-0.176045 -0.05064,-0.07717 -0.142282,-0.113343 -0.09164,-0.03858 -0.475079,-0.110932 -0.366558,-0.07235 -0.511252,-0.151929 -0.144694,-0.07958 -0.226687,-0.219453 -0.07958,-0.139871 -0.07958,-0.303857 0,-0.248392 0.166398,-0.450963 0.21463,-0.258038 0.60048,-0.258038 0.294212,0 0.545015,0.185691 l 0.159163,-0.16881 h 0.09887 l 0.0627,0.805463 h -0.161575 q -0.106109,-0.342442 -0.286977,-0.491959 -0.180867,-0.151929 -0.446139,-0.151929 -0.229099,0 -0.359324,0.113344 -0.130225,0.110932 -0.130225,0.272507 0,0.142282 0.120579,0.236333 0.118167,0.09646 0.463021,0.151929 0.40032,0.06752 0.520898,0.113344 0.197749,0.07235 0.306269,0.224275 0.108521,0.149518 0.108521,0.366559 0,0.299034 -0.236334,0.506429 -0.233922,0.207395 -0.595657,0.207395 -0.335208,0 -0.622184,-0.221865 l -0.176045,0.202572 h -0.127813 l -0.04823,-0.899515 z"
         id="path3614" />
      <path
         d="m 23.776129,79.65141 h 0.163987 v 0.921219 h 0.730705 v 0.221864 h -0.730705 v 1.449352 q 0,0.188103 0.08923,0.289388 0.08923,0.09888 0.226687,0.09888 0.163987,0 0.279742,-0.151929 0.115755,-0.151929 0.135048,-0.501606 h 0.161575 q -0.01447,0.450963 -0.204983,0.670416 -0.190514,0.217041 -0.494372,0.217041 -0.279741,0 -0.438905,-0.151929 -0.156752,-0.15434 -0.156752,-0.402732 v -1.516876 h -0.393085 v -0.168809 q 0.267684,-0.04582 0.407555,-0.224276 0.207395,-0.267684 0.224275,-0.749998 z"
         id="path3616" />
      <path
         d="m 26.82435,79.487424 h 0.156752 v 2.281343 h 0.554661 v 0.204983 h -0.554661 v 0.513664 q 0,0.06752 0.05306,0.10852 0.07717,0.05547 0.178456,0.05547 h 0.204983 v 0.180868 h -1.33842 V 82.6514 h 0.248392 q 0.125401,0 0.183279,-0.05305 0.06029,-0.05306 0.06029,-0.154341 V 81.97375 h -1.364947 v -0.231511 z m -0.253214,0.653535 -1.164787,1.627808 h 1.164787 z"
         id="path3618" />
    </g>
    <g
       aria-label="dst5"
       id="text3314"
       style="font-size:4.93889px;font-family:Century;-inkscape-font-specification:'Century, Normal';fill:#ffffff;stroke-width:0.264583">
      <path
         d="m 19.37984,94.503147 0.882634,-0.041 v 3.091629 q 0,0.180868 0.06752,0.258038 0.06994,0.07717 0.207395,0.07717 h 0.156752 v 0.180868 h -0.771702 l -0.05788,-0.46061 q -0.137459,0.24598 -0.32315,0.371382 -0.183279,0.12299 -0.412378,0.12299 -0.38585,0 -0.658357,-0.32315 -0.270096,-0.32315 -0.270096,-0.853695 0,-0.573953 0.347266,-0.916396 0.272507,-0.267684 0.627007,-0.267684 0.217041,0 0.388263,0.108521 0.173632,0.10852 0.301445,0.327973 v -1.275719 q 0,-0.101286 -0.07958,-0.159164 -0.07717,-0.06029 -0.243569,-0.06029 H 19.37984 Z m -0.13987,1.439705 q -0.26045,0 -0.41479,0.21463 -0.151929,0.214629 -0.151929,0.72347 0,0.552249 0.156752,0.778936 0.156752,0.224276 0.402732,0.224276 0.262861,0 0.448551,-0.250803 0.188103,-0.253215 0.188103,-0.73794 0,-0.458197 -0.20016,-0.721058 -0.173633,-0.231511 -0.429259,-0.231511 z"
         id="path3621" />
      <path
         d="m 21.205397,97.218571 q 0.149517,0.417202 0.342443,0.578777 0.195337,0.159163 0.479901,0.159163 0.262861,0 0.402732,-0.113344 0.142283,-0.115755 0.142283,-0.291799 0,-0.101286 -0.05305,-0.176045 -0.05064,-0.07717 -0.142282,-0.113343 -0.09164,-0.03858 -0.475079,-0.110932 -0.366558,-0.07235 -0.511252,-0.151929 -0.144694,-0.07958 -0.226688,-0.219453 -0.07958,-0.139871 -0.07958,-0.303857 0,-0.248392 0.166398,-0.450963 0.214629,-0.258038 0.60048,-0.258038 0.294211,0 0.545014,0.185691 l 0.159164,-0.16881 h 0.09887 l 0.0627,0.805463 h -0.161575 q -0.106109,-0.342442 -0.286977,-0.491959 -0.180867,-0.151929 -0.44614,-0.151929 -0.229099,0 -0.359323,0.113344 -0.130225,0.110932 -0.130225,0.272507 0,0.142282 0.120578,0.236333 0.118167,0.09646 0.463021,0.151929 0.400321,0.06752 0.520899,0.113344 0.197748,0.07235 0.306269,0.224275 0.108521,0.149518 0.108521,0.366559 0,0.299034 -0.236334,0.506429 -0.233922,0.207395 -0.595657,0.207395 -0.335208,0 -0.622185,-0.221865 l -0.176044,0.202572 h -0.127813 l -0.04823,-0.899515 z"
         id="path3623" />
      <path
         d="M 23.814713,94.888997 H 23.9787 v 0.921219 h 0.730705 V 96.03208 H 23.9787 v 1.449352 q 0,0.188103 0.08923,0.289388 0.08923,0.09887 0.226687,0.09887 0.163987,0 0.279742,-0.151929 0.115755,-0.151929 0.135048,-0.501606 h 0.161575 q -0.01447,0.450963 -0.204983,0.670416 -0.190514,0.217041 -0.494372,0.217041 -0.279742,0 -0.438905,-0.151929 -0.156752,-0.15434 -0.156752,-0.402732 V 96.03208 h -0.393085 v -0.168809 q 0.267684,-0.04582 0.407554,-0.224276 0.207395,-0.267684 0.224276,-0.749998 z"
         id="path3625" />
      <path
         d="m 25.649916,94.66231 q 0.610126,0.139871 0.995977,0.139871 0.180868,0 0.340031,-0.03376 0.159164,-0.03617 0.238745,-0.08199 0.041,-0.0217 0.05306,-0.0217 0.02412,0 0.02412,0.03617 0,0.08441 -0.10852,0.224276 -0.108521,0.137459 -0.296623,0.219453 -0.185691,0.08199 -0.429259,0.08199 -0.282153,0 -0.672827,-0.08682 l -0.07958,0.921219 q 0.183279,-0.09164 0.349677,-0.137459 0.166399,-0.04582 0.315916,-0.04582 0.472667,0 0.793405,0.313504 0.32315,0.313504 0.32315,0.774113 0,0.511252 -0.342442,0.841637 -0.342443,0.330385 -0.887457,0.330385 -0.417201,0 -0.680062,-0.236334 -0.260449,-0.238745 -0.260449,-0.566718 0,-0.197749 0.08199,-0.303858 0.08441,-0.10852 0.21463,-0.10852 0.127813,0 0.207394,0.08682 0.08199,0.08441 0.08199,0.221864 0,0.103698 -0.041,0.161575 -0.03859,0.05788 -0.144694,0.09646 -0.106109,0.041 -0.106109,0.09405 0,0.07717 0.07235,0.171221 0.07235,0.09164 0.217041,0.151929 0.147106,0.05788 0.335208,0.05788 0.36897,0 0.561895,-0.229099 0.195337,-0.229099 0.195337,-0.745174 0,-0.470256 -0.204983,-0.687297 -0.204983,-0.217041 -0.52331,-0.217041 -0.144694,0 -0.289388,0.05305 -0.144694,0.05306 -0.289388,0.159164 -0.01688,0.168809 -0.06029,0.226687 -0.04341,0.05547 -0.110932,0.05547 -0.04823,0 -0.07717,-0.03376 -0.02894,-0.03376 -0.02894,-0.09405 0,-0.106109 0.09887,-0.209806 0.02894,-0.03135 0.041,-0.05547 l 0.05547,-0.709001 q 0.03376,-0.419613 0.03617,-0.81511 z"
         id="path3627" />
    </g>
    <g
       aria-label="dst6"
       id="text3318"
       style="font-size:4.93889px;font-family:Century;-inkscape-font-specification:'Century, Normal';fill:#ffffff;stroke-width:0.264583">
      <path
         d="m 19.347284,109.80825 0.882634,-0.041 v 3.09163 q 0,0.18086 0.06752,0.25803 0.06994,0.0772 0.207395,0.0772 h 0.156752 v 0.18087 h -0.771701 l -0.05788,-0.46061 q -0.137459,0.24598 -0.32315,0.37138 -0.183279,0.12299 -0.412378,0.12299 -0.385851,0 -0.658358,-0.32315 -0.270096,-0.32315 -0.270096,-0.85369 0,-0.57395 0.347266,-0.9164 0.272507,-0.26768 0.627008,-0.26768 0.217041,0 0.388262,0.10852 0.173633,0.10852 0.301446,0.32797 v -1.27572 q 0,-0.10128 -0.07958,-0.15916 -0.07717,-0.0603 -0.243568,-0.0603 h -0.161575 z m -0.139871,1.43971 q -0.260449,0 -0.41479,0.21463 -0.151928,0.21463 -0.151928,0.72347 0,0.55225 0.156752,0.77894 0.156751,0.22427 0.402731,0.22427 0.262861,0 0.448552,-0.2508 0.188102,-0.25322 0.188102,-0.73794 0,-0.4582 -0.20016,-0.72106 -0.173633,-0.23151 -0.429259,-0.23151 z"
         id="path3630" />
      <path
         d="m 21.17284,112.52368 q 0.149518,0.4172 0.342443,0.57877 0.195337,0.15917 0.479902,0.15917 0.262861,0 0.402732,-0.11335 0.142282,-0.11575 0.142282,-0.2918 0,-0.10128 -0.05305,-0.17604 -0.05064,-0.0772 -0.142283,-0.11334 -0.09164,-0.0386 -0.475079,-0.11094 -0.366558,-0.0723 -0.511252,-0.15192 -0.144694,-0.0796 -0.226687,-0.21946 -0.07958,-0.13987 -0.07958,-0.30385 0,-0.2484 0.166398,-0.45097 0.21463,-0.25803 0.600481,-0.25803 0.294211,0 0.545014,0.18569 l 0.159163,-0.16881 h 0.09887 l 0.0627,0.80546 h -0.161575 q -0.106109,-0.34244 -0.286976,-0.49196 -0.180868,-0.15193 -0.44614,-0.15193 -0.229099,0 -0.359324,0.11334 -0.130224,0.11094 -0.130224,0.27251 0,0.14228 0.120578,0.23634 0.118167,0.0965 0.463021,0.15192 0.40032,0.0675 0.520898,0.11335 0.197749,0.0723 0.306269,0.22427 0.108521,0.14952 0.108521,0.36656 0,0.29904 -0.236334,0.50643 -0.233922,0.2074 -0.595657,0.2074 -0.335208,0 -0.622184,-0.22187 l -0.176045,0.20257 h -0.127813 l -0.04823,-0.89951 z"
         id="path3632" />
      <path
         d="m 23.782157,110.1941 h 0.163986 v 0.92122 h 0.730705 v 0.22187 h -0.730705 v 1.44935 q 0,0.1881 0.08923,0.28939 0.08923,0.0989 0.226688,0.0989 0.163986,0 0.279741,-0.15193 0.115756,-0.15193 0.135048,-0.5016 h 0.161575 q -0.01447,0.45096 -0.204983,0.67041 -0.190514,0.21704 -0.494371,0.21704 -0.279742,0 -0.438906,-0.15192 -0.156751,-0.15435 -0.156751,-0.40274 v -1.51687 h -0.393086 v -0.16881 q 0.267684,-0.0458 0.407555,-0.22428 0.207395,-0.26768 0.224276,-0.75 z"
         id="path3634" />
      <path
         d="m 25.735526,111.79297 q 0.188102,-0.2508 0.395497,-0.35932 0.207395,-0.10852 0.455786,-0.10852 0.400321,0 0.670416,0.27251 0.272507,0.27009 0.272507,0.68488 0,0.4992 -0.320738,0.82958 -0.320739,0.33039 -0.793406,0.33039 -0.332796,0 -0.593245,-0.17605 -0.26045,-0.17845 -0.426848,-0.55466 -0.163986,-0.3762 -0.163986,-0.87781 0,-0.5426 0.202571,-0.98392 0.202572,-0.44132 0.516076,-0.66077 0.315915,-0.22186 0.658357,-0.22186 0.352089,0 0.598069,0.19292 0.204983,0.15675 0.204983,0.37621 0,0.1471 -0.09164,0.24115 -0.08923,0.0941 -0.219453,0.0941 -0.120578,0 -0.207395,-0.0796 -0.0844,-0.0796 -0.0844,-0.1881 0,-0.0723 0.05788,-0.16399 0.05306,-0.0844 0.05306,-0.13263 0,-0.0675 -0.06511,-0.11093 -0.08682,-0.0555 -0.238745,-0.0555 -0.233922,0 -0.426847,0.14711 -0.192926,0.1471 -0.327973,0.50642 -0.132637,0.35692 -0.132637,0.80306 0,0.0651 0.0072,0.19533 z m 0.718647,-0.23151 q -0.301446,0 -0.494371,0.21946 -0.190514,0.21704 -0.190514,0.61253 0,0.42926 0.185691,0.65595 0.18569,0.22669 0.472667,0.22669 0.284565,0 0.458198,-0.21463 0.173633,-0.21463 0.173633,-0.64148 0,-0.45337 -0.161575,-0.65595 -0.159164,-0.20257 -0.443729,-0.20257 z"
         id="path3636" />
    </g>
  </g>
  <g
     inkscape:groupmode="layer"
     id="layer3"
     inkscape:label="components"
     style="display:none">
    <circle
       style="fill:#00ff00;stroke:#00ff00;stroke-width:0.0519999;stroke-dasharray:none;stroke-opacity:1"
       id="circle3786"
       cx="7.5661588"
       cy="57.300743"
       r="2.2653439"
       inkscape:label="src2" />
    <circle
       style="fill:#00ff00;stroke:#00ff00;stroke-width:0.0519999;stroke-dasharray:none;stroke-opacity:1"
       id="circle3788"
       cx="7.5661588"
       cy="72.601143"
       r="2.2653439"
       inkscape:label="src3" />
    <circle
       style="fill:#00ff00;stroke:#00ff00;stroke-width:0.0519999;stroke-dasharray:none;stroke-opacity:1"
       id="circle3790"
       cx="7.5661588"
       cy="87.901543"
       r="2.2653439"
       inkscape:label="src4" />
    <circle
       style="fill:#00ff00;stroke:#00ff00;stroke-width:0.0519999;stroke-dasharray:none;stroke-opacity:1"
       id="circle3792"
       cx="7.5661588"
       cy="103.20194"
       r="2.2653439"
       inkscape:label="src5" />
    <circle
       style="fill:#00ff00;stroke:#00ff00;stroke-width:0.0519999;stroke-dasharray:none;stroke-opacity:1"
       id="circle3794"
       cx="7.5661588"
       cy="118.50234"
       r="2.2653439"
       inkscape:label="src6" />
    <circle
       style="fill:#0000ff;stroke:#0000ff;stroke-width:0.0519999;stroke-dasharray:none;stroke-opacity:1"
       id="circle5248"
       cx="22.848877"
       cy="42.000343"
       r="2.2653439"
       inkscape:label="dst1" />
    <circle
       style="fill:#0000ff;stroke:#0000ff;stroke-width:0.0519999;stroke-dasharray:none;stroke-opacity:1"
       id="circle5250"
       cx="22.848877"
       cy="57.300743"
       r="2.2653439"
       inkscape:label="dst2" />
    <circle
       style="fill:#0000ff;stroke:#0000ff;stroke-width:0.0519999;stroke-dasharray:none;stroke-opacity:1"
       id="circle5252"
       cx="22.848877"
       cy="72.601143"
       r="2.2653439"
       inkscape:label="dst3" />
    <circle
       style="fill:#0000ff;stroke:#0000ff;stroke-width:0.0519999;stroke-dasharray:none;stroke-opacity:1"
       id="circle5254"
       cx="22.848877"
       cy="87.901543"
       r="2.2653439"
       inkscape:label="dst4" />
    <circle
       style="fill:#0000ff;stroke:#0000ff;stroke-width:0.0519999;stroke-dasharray:none;stroke-opacity:1"
       id="circle5256"
       cx="22.848877"
       cy="103.20194"
       r="2.2653439"
       inkscape:label="dst5" />
    <circle
       style="fill:#0000ff;stroke:#0000ff;stroke-width:0.0519999;stroke-dasharray:none;stroke-opacity:1"
       id="circle5258"
       cx="22.848877"
       cy="118.50234"
       r="2.2653439"
       inkscape:label="dst6" />
    <circle
       style="fill:#00ff00;stroke:#00ff00;stroke-width:0.0519999;stroke-dasharray:none;stroke-opacity:1"
       id="circle6850"
       cx="7.5661588"
       cy="42.000343"
       r="2.2653439"
       inkscape:label="src1" />
  </g>
</svg>
